<svg class="svg-icon" style="width: 1em; height: 1em;vertical-align: middle;fill: currentColor;overflow: hidden;" viewBox="0 0 1024 1024" version="1.1" xmlns="http://www.w3.org/2000/svg"><path d="M828.864 211.072A106.176 106.176 0 0 0 768 192H256c-22.613333 0-43.605333 7.04-60.864 19.072l253.354667 223.552a96 96 0 0 0 127.018666 0l253.354667-223.573333z m39.253333 50.709333l-250.24 220.821334a160 160 0 0 1-211.733333 0L155.882667 261.802667A106.453333 106.453333 0 0 0 149.333333 298.666667v426.666666a106.666667 106.666667 0 0 0 106.666667 106.666667h512a106.666667 106.666667 0 0 0 106.666667-106.666667V298.666667a106.453333 106.453333 0 0 0-6.549334-36.885334zM256 128h512a170.666667 170.666667 0 0 1 170.666667 170.666667v426.666666a170.666667 170.666667 0 0 1-170.666667 170.666667H256a170.666667 170.666667 0 0 1-170.666667-170.666667V298.666667a170.666667 170.666667 0 0 1 170.666667-170.666667z" fill="#000000" /></svg>